<svg xmlns="http://www.w3.org/2000/svg" viewBox="0 0 1074.54 154.14"><g id="Layer_2" data-name="Layer 2"><g id="Layer_1-2" data-name="Layer 1"><path d="M147.05,0A197.94,197.94,0,0,0,73.52,154.14,197.93,197.93,0,0,0,0,0,140.12,140.12,0,0,0,73.52,20.67,140.13,140.13,0,0,0,147.05,0Z"/><path d="M241.07,28.05V43.31H206v70.17H190.79V43.31h-35V28.05Z"/><path d="M263.76,51v7.93h54.92V74.18H263.76V90.29a7.87,7.87,0,0,0,7.81,7.81h62.36v15.26H271.57a23,23,0,0,1-22.94-23.07V51a23,23,0,0,1,22.94-23.07h62.36V43.18H271.57A7.87,7.87,0,0,0,263.76,51Z"/><path d="M348.57,70.64A27.5,27.5,0,0,0,376,98.1h42.72v15.26H376a42.72,42.72,0,0,1,0-85.43h42.72V43.18H376A27.51,27.51,0,0,0,348.57,70.64Z"/><path d="M511.49,27.93v85.43H496.24V74.18H441.32v39.18H426.06V27.93h15.26v31h54.92v-31Z"/><path d="M568.47,113.36h.25l-.25.24ZM653.9,27.81,620.83,70.64,619,73v40.28H603.74v-40l-2.07-2.57L568.6,27.81h19.28L611.31,58.2l23.43-30.39Zm-.12,85.55h.12v.24Z"/><path d="M720.16,113.36H703.08L695.27,98.1,676.6,61.49,657.92,98.1l-7.81,15.26H633l7.81-15.26L676.6,27.93,712.35,98.1Z"/><path d="M808,28.05v85.43l-15.26-11.72L737.85,59.42v54.06H722.6V28.3L737.85,40l54.92,42.35V27.93Z"/><path d="M900.65,28.05V43.31h-35v70.17H850.37V43.31h-35V28.05Z"/><path d="M977,98.35l7.81,15.25H967.76L960,98.35l-8.17-16-.37-.73a15.12,15.12,0,0,0-12.94-7.33H923.22v39.3H908V28.17h53.95a22.93,22.93,0,0,1,22.94,22.95,23.13,23.13,0,0,1-13.43,21,20.64,20.64,0,0,1-6.59,1.83Zm-15.13-39.3a7.12,7.12,0,0,0,3.17-.73,7.75,7.75,0,0,0,4.64-7.08,8,8,0,0,0-2.32-5.61,7.69,7.69,0,0,0-5.49-2.2H923.22V59.17Z"/><path d="M1074.54,113.36h-17.08l-7.81-15.26L1031,61.49,1012.3,98.1l-7.81,15.26H987.41l7.81-15.26L1031,27.93l35.76,70.17Z"/></g></g></svg>